<?xml version="1.0" encoding="UTF-8" standalone="no"?>
<!-- Generator: Adobe Illustrator 24.1.2, SVG Export Plug-In . SVG Version: 6.00 Build 0)  -->

<svg
   version="1.1"
   id="Слой_1"
   x="0px"
   y="0px"
   viewBox="0 0 483.85583 483.12549"
   xml:space="preserve"
   sodipodi:docname="LOGO-FP-1.svg"
   width="483.85583"
   height="483.12549"
   inkscape:version="1.1.2 (b8e25be833, 2022-02-05)"
   xmlns:inkscape="http://www.inkscape.org/namespaces/inkscape"
   xmlns:sodipodi="http://sodipodi.sourceforge.net/DTD/sodipodi-0.dtd"
   xmlns="http://www.w3.org/2000/svg"
   xmlns:svg="http://www.w3.org/2000/svg"><defs
   id="defs9" /><sodipodi:namedview
   id="namedview7"
   pagecolor="#505050"
   bordercolor="#eeeeee"
   borderopacity="1"
   inkscape:pageshadow="0"
   inkscape:pageopacity="0"
   inkscape:pagecheckerboard="0"
   showgrid="false"
   fit-margin-top="0"
   fit-margin-left="0"
   fit-margin-right="0"
   fit-margin-bottom="0"
   inkscape:zoom="0.14947917"
   inkscape:cx="555.26132"
   inkscape:cy="80.278746"
   inkscape:window-width="1920"
   inkscape:window-height="1017"
   inkscape:window-x="-8"
   inkscape:window-y="-8"
   inkscape:window-maximized="1"
   inkscape:current-layer="Слой_1" />
<style
   type="text/css"
   id="style2">
	.st0{fill:#E8511C;}
</style>
<path
   class="st0"
   d="m 245.24291,0.02550431 c 121.7,-1.90000001 237.4,102.59999569 238.6,232.59999569 1.4,147.9 -111.2,250.5 -245.4,250.5 -115.9,0 -241.099999,-99.5 -238.39999903,-248.1 C 2.042911,124.3255 93.842911,-0.47449569 245.24291,0.02550431 Z m 153.3,89.69999969 c -31.6,46.199996 -63,92.099996 -94.1,137.499996 21.4,21 42.4,41.4 63.2,62 20.8,20.6 41.4,41.4 62.1,62.1 45.2,-66.6 46,-186 -31.2,-261.599996 z m -186.4,366.499996 c 35.2,10.3 116.9,-6 139.8,-27.6 -1.8,-2.1 -3.3,-4 -5,-5.8 -22.2,-24.3 -127.2,-135.6 -154.2,-164.1 z m -40.7,-421.499996 c 6.7,67.899996 13.3,135.499996 20,202.999996 40.4,-67.6 80.8,-135.3 121.4,-203.199996 -47.4,-15.2 -94,-15.9 -141.4,0.2 z M 65.442911,115.3255 c -39.5,56 -50.3,117.1 -33.6,183 10.2,40.1 32,73.5 61.5,102.1 -9.3,-95.1 -18.6,-190.1 -27.9,-285.1 z"
   id="path4"
   style="fill:#e9511b;fill-opacity:1" />
</svg>
