<?xml version="1.0" encoding="UTF-8"?>
<!DOCTYPE svg PUBLIC "-//W3C//DTD SVG 1.1//EN" "http://www.w3.org/Graphics/SVG/1.1/DTD/svg11.dtd">
<!-- Creator: CorelDRAW -->
<svg xmlns="http://www.w3.org/2000/svg" xml:space="preserve" width="150mm" height="150mm" style="shape-rendering:geometricPrecision; text-rendering:geometricPrecision; image-rendering:optimizeQuality; fill-rule:evenodd; clip-rule:evenodd"
viewBox="0 0 150 150"
 xmlns:xlink="http://www.w3.org/1999/xlink">
 <defs>
  <style type="text/css">
   <![CDATA[
    .str0 {stroke:#67BD50;stroke-width:0.2}
    .fil2 {fill:#0F0D0E}
    .fil0 {fill:#67BD50}
    .fil1 {fill:white}
   ]]>
  </style>
 </defs>
 <g id="Capa_x0020_1">
  <metadata id="CorelCorpID_0Corel-Layer"/>
  <polygon class="fil0" points="-0,149.938 149.99,150 150,0 -0,0.0639 "/>
  <ellipse class="fil1 str0" cx="74.5077" cy="78.8124" rx="61.7768" ry="61.842"/>
  <ellipse class="fil1 str0" cx="74.5077" cy="78.8124" rx="59.813" ry="59.8761"/>
  <g id="_275596960">
   <path id="_278064816" class="fil2" d="M72.8649 47.7268c-0.5897,0.298 -4.3318,0.9759 -5.1739,2.1682 -1.9304,1.849 -1.5034,3.546 -2.2551,5.3189 -4.2311,1.6965 -7.6592,2.7551 -10.3968,5.6208 -2.9597,3.0982 -4.9896,5.2685 -5.7718,10.4889 -0.5517,3.6819 -0.2269,26.5436 -0.2298,32.173 -0.002,1.7653 -2.5364,8.7192 -3.22,10.6155 -0.6409,1.7779 -1.1021,3.4269 -1.7281,5.1832 -0.6007,1.6852 -1.606,4.364 0.861,4.5677 2.123,0.1753 2.3601,-2.374 2.9298,-4.0327 0.6107,-1.7783 1.1872,-3.4302 1.7453,-5.1726 0.7495,-2.3397 2.9259,-8.9047 3.1796,-10.9449l0.0016 -29.1819c-0.0001,-8.4384 6.0289,-13.2672 12.8727,-15.3869 8.4009,-2.602 16.8197,-1.5484 23.5461,2.1146 1.9565,1.0655 4.2122,3.0112 5.4957,4.8786 0.4535,0.6597 0.9255,1.5225 1.3148,2.3642 1.6716,3.6144 1.1956,8.7102 1.1956,13.1629l-0.0025 21.4012c-0.0084,2.7925 0.4579,3.4547 1.2431,5.8039 1.1783,3.5254 2.3708,7.0284 3.537,10.5224 0.516,1.5458 0.8589,4.3522 2.7372,4.4855 2.8252,0.2006 1.7892,-2.8478 1.2261,-4.5342 -1.2073,-3.6153 -2.4241,-7.0541 -3.5889,-10.6921 -0.6893,-2.1528 -1.3967,-3.2926 -1.3823,-5.802l0.0022 -21.1847c0,-4.6482 0.3753,-9.1408 -0.9505,-13.2726 -2.5487,-6.6187 -8.4479,-10.341 -15.4618,-13.0992 0.0424,-2.3882 -0.7994,-4.262 -2.0558,-5.3017 -1.5794,-1.3069 -3.3739,-1.6627 -5.3672,-2.264 -0.2173,-4.8451 -0.041,-12.7971 -0.0233,-18.1589 0.007,-2.088 0.0356,-3.8618 -2.1056,-3.8954 -2.1633,-0.0339 -2.1618,1.9865 -2.1538,3.8961 0.0232,5.5201 0.1667,13.0109 -0.0206,18.1582z"/>
   <path id="_278064384" class="fil2" d="M83.03 106.739c0.0094,4.2287 1.2923,9.7706 2.1104,14.1434 0.2993,1.5999 0.2837,3.1401 1.8627,3.3632 1.8812,0.2658 2.3861,-1.2641 2.075,-2.9422 -0.5203,-2.8051 -2.067,-11.5476 -2.2146,-13.4836l0.0012 -21.4c0,-4.345 -2.9723,-3.0959 -3.5447,-2.1182 -0.6322,1.0799 -0.2972,20.3568 -0.29,22.4374z"/>
   <path id="_278026520" class="fil2" d="M64.417 83.5249c-1.6455,0.7261 -1.2424,2.5485 -1.2411,4.6242l-0.0003 17.7252c0.0006,4.9167 -1.2875,10.412 -2.1965,15.3641 -0.3363,1.8319 0.3761,3.7116 2.4374,2.8917 1.3255,-0.5272 1.3625,-2.6535 1.6579,-4.2389 1.417,-7.6045 1.9339,-7.8983 1.9362,-15.7462l0.0038 -17.5128c0.0046,-0.8778 0.0719,-1.9863 -0.3936,-2.6061 -0.3967,-0.5284 -1.3815,-0.8641 -2.2038,-0.5012z"/>
   <path id="_275597992" class="fil2" d="M57.1446 83.5972c-0.3786,0.1877 -1.0676,0.1159 -1.155,1.7301 -0.2035,3.7559 0.0055,16.689 0.0083,20.7632 0.0026,3.7906 -0.9998,5.863 -2.0281,9.6641 -0.4355,1.6101 -0.8895,2.9442 -1.31,4.5316 -0.5415,2.0439 0.5908,3.6457 2.4011,2.8561 1.2035,-0.5248 1.4791,-2.5264 1.8862,-3.9892l2.6013 -9.0811c0.5303,-1.9095 0.2045,-19.4935 0.2392,-23.4373 0.0161,-1.8278 -0.4934,-4.1031 -2.643,-3.0375z"/>
   <path id="_275598112" class="fil2" d="M71.1361 83.5285c-1.6331,0.7291 -1.172,2.5786 -1.1711,4.6206 0.0043,9.7677 0.306,18.3033 -0.6862,28.0146 -0.2005,1.9627 -1.0508,6.5167 -0.1514,7.5128 0.4771,0.5284 1.5098,0.7739 2.2842,0.4128 1.3555,-0.6322 1.1496,-2.8768 1.3032,-4.3808 1.236,-12.1003 1.0313,-15.5594 1.0313,-27.6685 0,-1.6269 0.2899,-7.107 -0.422,-8.0066 -0.4172,-0.5272 -1.348,-0.88 -2.188,-0.5049z"/>
   <path id="_275597320" class="fil2" d="M76.3108 85.9875l0.0016 23.5616c-0.001,2.4112 0.5672,5.791 0.8064,8.2383 0.2218,2.2706 -0.0678,7.1483 2.8562,6.4367 2.2705,-0.5526 1.0787,-5.4171 0.848,-7.4705 -1.2353,-12.2652 -0.7567,-17.6209 -0.7579,-30.7661 -0.0003,-3.6158 -3.7543,-3.5995 -3.7543,0z"/>
   <path id="_275597272" class="fil2" d="M90.2494 86.4198l0 21.6162c0.0004,2.2547 2.3761,9.2439 3.1957,12.3405 0.3735,1.4111 0.556,2.8833 2.2046,2.9329 3.3815,0.1019 1.2317,-4.6988 0.5876,-7.0091 -0.5574,-1.9994 -2.2014,-7.559 -2.2045,-9.3452l0.0014 -20.9676c-0.0015,-1.5174 -0.3298,-2.7783 -2.0628,-2.6153 -1.599,0.1504 -1.722,1.3912 -1.722,3.0476z"/>
   <path id="_275597224" class="fil2" d="M59.7131 68.2149c-1.3428,0.3137 -2.2892,1.4466 -1.3711,2.8757 0.6695,1.0422 2.4065,0.8554 3.9244,0.8546 3.3481,-0.002 27.1535,0.1899 28.3148,-0.09 1.1853,-0.2858 1.8947,-1.7201 1.1106,-2.8979 -0.6943,-1.043 -2.319,-0.845 -3.8592,-0.8431 -3.3796,0.0043 -26.8885,-0.187 -28.1195,0.1007z"/>
   <path id="_275596792" class="fil2" d="M60.3166 78.813l28.3822 -0.0012c1.7895,0 3.8044,-0.1686 3.2022,-2.4726 -0.4467,-1.709 -2.4545,-1.2958 -4.5022,-1.2958l-23.8323 -0.0006c-1.5566,0.0008 -4.1906,-0.4842 -5.1109,0.6559 -1.0845,1.3434 -0.1871,3.1148 1.861,3.1143z"/>
   <path id="_275597536" class="fil1" d="M68.9704 54.4546l12.1045 -0.0179c-0.5405,-2.7602 -3.4623,-3.5086 -6.0245,-3.5131 -1.4779,-0.0026 -2.8378,0.3407 -3.9877,0.8325 -1.2834,0.5489 -1.8658,1.1855 -2.0923,2.6985z"/>
  </g>
 </g>
</svg>
